<svg viewBox="0 0 40 40" fill="none" xmlns="http://www.w3.org/2000/svg">
  <circle cx="20" cy="20" r="20" fill="#17202C"/>
  <path d="M28.5 13.5C28.5 12.1193 27.3807 11 26 11H14C12.6193 11 11.5 12.1193 11.5 13.5V26.5C11.5 27.8807 12.6193 29 14 29H26C27.3807 29 28.5 27.8807 28.5 26.5V13.5Z" fill="#fff"/>
  <path d="M20 25C22.7614 25 25 22.7614 25 20C25 17.2386 22.7614 15 20 15C17.2386 15 15 17.2386 15 20C15 22.7614 17.2386 25 20 25Z" fill="#00BFAE"/>
  <path d="M20 23C21.6569 23 23 21.6569 23 20C23 18.3431 21.6569 17 20 17C18.3431 17 17 18.3431 17 20C17 21.6569 18.3431 23 20 23Z" fill="#fff"/>
</svg> 